<svg xmlns="http://www.w3.org/2000/svg" viewBox="0 0 200 200" fill="none" stroke="#fbbf24" stroke-width="1.5" stroke-linecap="round" stroke-linejoin="round">
  <defs>
    <linearGradient id="estGrad" x1="0" y1="0" x2="0" y2="1">
      <stop offset="0%" stop-color="#fbbf24" stop-opacity="0.18"/>
      <stop offset="100%" stop-color="#f59e0b" stop-opacity="0"/>
    </linearGradient>
  </defs>
  <rect x="0" y="0" width="200" height="200" rx="16" fill="url(#estGrad)" stroke="none"/>
  <!-- WhatsApp bubble principal -->
  <path d="M 60 50 L 60 110 Q 60 120 70 120 L 110 120 L 130 140 L 125 120 L 140 120 Q 150 120 150 110 L 150 50 Q 150 40 140 40 L 70 40 Q 60 40 60 50 Z" fill="#0b0d12"/>
  <!-- linhas de texto -->
  <line x1="75" y1="60" x2="135" y2="60" stroke-width="2"/>
  <line x1="75" y1="73" x2="125" y2="73" opacity="0.7"/>
  <line x1="75" y1="86" x2="130" y2="86" opacity="0.5"/>
  <line x1="75" y1="99" x2="115" y2="99" opacity="0.5"/>
  <!-- spark IA -->
  <g transform="translate(150, 75)">
    <circle r="14" fill="#0b0d12" stroke="#fbbf24"/>
    <path d="M 0 -7 L 2 -2 L 7 0 L 2 2 L 0 7 L -2 2 L -7 0 L -2 -2 Z" fill="#fbbf24" stroke="none"/>
  </g>
  <!-- linhas conexão / network -->
  <g opacity="0.6" stroke-dasharray="2,3">
    <line x1="40" y1="160" x2="100" y2="135"/>
    <line x1="160" y1="160" x2="120" y2="140"/>
    <circle cx="40" cy="160" r="3" fill="#fbbf24" stroke="none"/>
    <circle cx="160" cy="160" r="3" fill="#fbbf24" stroke="none"/>
    <circle cx="100" cy="170" r="3" fill="#fbbf24" stroke="none"/>
  </g>
  <line x1="100" y1="170" x2="100" y2="138" opacity="0.4" stroke-dasharray="2,3"/>
</svg>
